<?xml version="1.0" encoding="utf-8"?>
<svg fill="#ffffff" version="1.1" id="_x34_4263672-1537-4f89-b617-3ae2c1e99964" xmlns="http://www.w3.org/2000/svg" xmlns:xlink="http://www.w3.org/1999/xlink" x="0px" y="0px" viewBox="0 0 337.3 90.3" style="enable-background:new 0 0 337.3 90.3;" xml:space="preserve">
  <title>whitesky_wholesale_vector_elements</title>
  <path d="M284.1,18.6l0.5-0.3c14.4-9.7,33.2-9.7,47.5,0.1l5.2-9.7c-17.6-11.4-40.2-11.4-57.9-0.1L284.1,18.6z" />
  <path d="M26.8,73.1H14.5L0,30.5h12.3l8.3,25.7l8.3-25.7h11.5l8.3,25.7L57,30.5h12.4L54.8,73.1H42.5l-7.8-23.2L26.8,73.1z" />
  <path d="M83.2,50.2v23H71.3V14.4h11.9v20.9c3.6-3.6,7.6-5.5,12.1-5.5c4.3-0.1,8.4,1.6,11.3,4.8c3.1,3.2,4.6,7.4,4.6,12.7v25.9H99.2
	V49.9c0-6.5-2.4-9.8-7.2-9.8c-2.3,0-4.6,0.9-6.2,2.6C84,44.3,83.2,46.8,83.2,50.2z" />
  <path d="M118.1,25.1c-2.8-2.7-2.9-7.2-0.1-10s7.2-2.9,10-0.1c2.8,2.7,2.9,7.2,0.1,10c-1.3,1.4-3.1,2.1-5,2.1
	C121.2,27.2,119.4,26.4,118.1,25.1z M129,73.1h-11.9V30.5H129V73.1L129,73.1z" />
  <path d="M149.6,39.1v19.1c-0.1,1.4,0.4,2.8,1.3,3.8c0.7,0.9,1.8,1.4,3,1.4c2.2,0,5.2-2.1,6.8-4.1l3.3,9.4c-3.7,3.4-7.6,5.1-11.7,5.1
	c-3.9,0.1-7.6-1.3-10.4-4c-2.8-2.7-4.2-6.3-4.2-11V39.1h-5v-8.6h5V17.8h12v12.8h10.3v8.6L149.6,39.1L149.6,39.1z" />
  <path d="M202.4,67c-4.5,4.4-10.6,6.9-16.9,6.8c-6.5,0-11.8-2-16-6s-6.3-9.3-6.3-16c0-6.7,2.2-12,6.5-16c4.1-3.9,9.6-6,15.2-5.9
	c5.5-0.1,10.8,1.7,14.9,5.3c4.1,3.5,6.1,8.4,6.1,14.6V56h-31c0.4,2.3,1.7,4.4,3.6,5.7c2,1.5,4.5,2.3,7,2.2c3.9,0.1,7.6-1.4,10.3-4.2
	L202.4,67z M191,41.7c-1.7-1.4-3.8-2.1-6-2.1c-2.3,0-4.6,0.7-6.5,2.1c-1.9,1.4-3.1,3.5-3.4,5.8h18.7C193.7,45.3,192.7,43.2,191,41.7
	z" />
  <path d="M242.7,59.5c0.1,4-1.6,7.8-4.8,10.4c-3.4,2.7-7.7,4.1-12,3.9c-3.5,0-6.9-0.6-10.1-1.7c-3.5-1.1-6.7-2.9-9.5-5.1l5.4-7.6
	c4.1,3.3,9.2,5.2,14.5,5.3c1.3,0.1,2.6-0.3,3.7-0.9c0.9-0.5,1.4-1.5,1.4-2.5c-0.1-1.2-0.8-2.3-1.9-2.8c-1.7-1.1-3.6-1.9-5.5-2.4
	c-2.4-0.8-4.2-1.4-5.5-1.9c-1.5-0.7-3-1.5-4.3-2.4c-3.2-1.9-5.2-5.4-5-9.1c-0.1-3.9,1.7-7.6,4.9-9.9c3.2-2.5,7.4-3.8,12.6-3.8
	s10.3,1.7,15.4,5.2l-4.5,8.1c-3.3-2.4-7.2-3.8-11.3-3.9c-3.8,0-5.6,1-5.6,3.1c0,1.2,0.7,2.2,1.8,2.7c1.9,0.9,3.9,1.7,6,2.2
	c2.8,0.9,4.7,1.5,5.9,2c1.4,0.6,2.8,1.3,4.2,2.1C241.2,52.2,242.7,55.2,242.7,59.5z" />
  <path d="M259.4,73.1h-12.2V12.9h12.2v30.9l13.5-14.4h15.3l-16.6,17.7l17.3,26h-14.4l-11.1-16.7l-4,4.1L259.4,73.1L259.4,73.1z" />
  <path d="M298.1,90.3c-4.3,0-8.3-1.7-12.1-5.2l5.5-9c1.6,1.8,3.9,2.9,6.3,3c1.2,0,2.3-0.7,2.9-1.7c0.8-1,1.2-2.3,1.2-3.5
	c0-1.2-5.6-16.1-16.9-44.5h13l10.6,27.2l10.6-27.2h13l-20.3,51.5c-1.1,2.8-3,5.3-5.6,6.9C304.1,89.5,301.1,90.4,298.1,90.3z" />
</svg>
